<?xml version="1.0" encoding="UTF-8"?>
<svg id="Layer_1" data-name="Layer 1" xmlns="http://www.w3.org/2000/svg" xmlns:xlink="http://www.w3.org/1999/xlink" viewBox="0 0 687.87 687.87">
  <defs>
    <linearGradient id="linear-gradient" x1="0" y1="343.94" x2="687.87" y2="343.94" gradientUnits="userSpaceOnUse">
      <stop offset="0" stop-color="#372957"/>
      <stop offset=".08" stop-color="#2f2349"/>
      <stop offset=".22" stop-color="#241c35"/>
      <stop offset=".39" stop-color="#1c1628"/>
      <stop offset=".61" stop-color="#181320"/>
      <stop offset="1" stop-color="#17131e"/>
    </linearGradient>
  </defs>
  <circle cx="343.94" cy="343.94" r="343.94" style="fill: url(#linear-gradient);"/>
  <path d="m242.33,252.2c-4.28-4.76-9.55-8.2-15.93-10.31-3.15-.98-7.93-1.97-14.17-2.81-6.24-.84-12.14-1.26-17.75-1.26h-47.35c-3.88,0-7.01,3.14-7.01,7.01v133.14c0,3.88,3.14,7.01,7.01,7.01h13.89c3.88,0,7.02-3.14,7.02-7.01v-114.55h24.27c7.37,0,13.04.55,16.84,1.68,4.63,1.47,8.28,4.07,10.8,7.93,2.6,3.86,3.86,8.77,3.86,14.67,0,10.52-3.93,17.46-11.86,20.83-2.22.89-4.93,1.54-8.09,1.98-3.84.54-6.99,3.75-6.99,7.63v11.15c0,3.88,2.73,6.98,6.08,6.75,1.98-.14,3.99-.33,6.06-.58,5.75-.7,10.31-1.54,13.54-2.66,9.96-3.09,17.68-8.49,23.01-16.28,5.39-7.79,8.07-17.82,8.07-30.09,0-6.74-.78-12.91-2.46-18.59-1.68-5.61-4.63-10.88-8.83-15.65Z" style="fill: #fff;"/>
  <path d="m314.95,385c-3.88,0-7.02-3.14-7.02-7.01v-108.34c0-3.31-2.69-6-6-6h-33.68c-3.88,0-7.01-3.14-7.01-7.01v-11.76c0-3.88,3.14-7.01,7.01-7.01h107.33c3.87,0,7.02,3.14,7.02,7.01v11.76c0,3.88-3.14,7.01-7.02,7.01h-33.78c-3.31,0-6,2.69-6,6v108.34c0,3.88-3.14,7.01-7.01,7.01h-13.83Z" style="fill: #fff;"/>
  <path d="m427.53,263.64h61.31c3.88,0,7.01-3.14,7.01-7.01v-11.78c0-3.88-3.14-7.01-7.01-7.01h-82.28c-3.87,0-7.02,3.14-7.02,7.01v133.14c0,3.88,3.14,7.01,7.02,7.01h85.51c3.87,0,7.01-3.14,7.01-7.01v-11.57c0-3.88-3.14-7.01-7.01-7.01h-64.54v-95.76Z" style="fill: #fff;"/>
  <path d="m454.49,296.61h28.27c3.87,0,7.01,3.14,7.01,7.01v11.15c0,3.87-3.14,7.01-7.01,7.01h-28.27c-3.87,0-7.01-3.14-7.01-7.01v-11.15c0-3.87,3.14-7.01,7.01-7.01Z" style="fill: #fff;"/>
  <path d="m648.57,334.54c-.45,2.93-.95,5.85-1.2,6.94-1.06,4.84-2.73,9.33-4.92,13.61-3.29,6.38-7.57,12-12.9,16.84-5.33,4.91-12,8.77-19.99,11.5-8,2.81-16.98,4.14-26.8,4.14-11.57,0-21.95-1.89-31.01-5.68-9.12-3.79-16.62-9.12-22.45-15.99-5.82-6.8-10.24-14.81-13.33-24.06-.06-.14-.06-.28-.14-.42-2.94-9.04-4.42-19.07-4.42-29.95s1.61-20.83,4.76-30.09c.07-.14.07-.28.15-.42,3.23-9.12,7.71-17.05,13.6-23.78,5.97-6.95,13.61-12.34,22.94-16.2,9.33-3.93,19.77-5.9,31.36-5.9,9.46,0,18.1,1.26,25.74,3.86,7.71,2.6,14.17,6.24,19.29,10.94,5.2,4.7,9.34,10.03,12.49,16.14,1.47,2.81,2.73,5.75,3.65,8.84.14.21.21.49.28.77.57,1.82,1.06,3.72,1.48,5.68.46,2.06.88,4.17,1.26,6.32.61,3.5-2.22,6.38-6.1,6.38h-14.74c-3.88,0-7.3-1.63-7.71-3.63-.32-1.54-.66-3.05-.84-3.59-2.03-7.5-5.75-13.67-11.02-18.37-6.02-5.48-14.16-8.14-24.4-8.14-13.68,0-24.28,4.55-31.78,13.82-7.51,9.26-11.3,21.74-11.3,37.39,0,8.34,1.05,15.79,3.09,22.24,1.83,5.9,4.49,11.09,8.07,15.44,7.44,9.12,17.61,13.75,30.65,13.75,21.68,0,29.2-4.54,36.27-25.55,0,0,.58-2.42,1.13-4.85.62-2.69,4.19-4.89,8.06-4.89h14.73c3.87,0,6.65,3.12,6.04,6.95Z" style="fill: #fff;"/>
</svg>